<region> lovel=1 hivel=3 amp_velcurve_3=1 sample=../samples/_nsmr/pre_roll/sn12tight/stx/snare_on/sn12tight_p50_stx_xtk_001.wav
<region> lovel=4 hivel=6 amp_velcurve_6=1 sample=../samples/_nsmr/pre_roll/sn12tight/stx/snare_on/sn12tight_p50_stx_xtk_002.wav
<region> lovel=7 hivel=9 amp_velcurve_9=1 sample=../samples/_nsmr/pre_roll/sn12tight/stx/snare_on/sn12tight_p50_stx_xtk_003.wav
<region> lovel=10 hivel=12 amp_velcurve_12=1 sample=../samples/_nsmr/pre_roll/sn12tight/stx/snare_on/sn12tight_p50_stx_xtk_004.wav
<region> lovel=13 hivel=15 amp_velcurve_15=1 sample=../samples/_nsmr/pre_roll/sn12tight/stx/snare_on/sn12tight_p50_stx_xtk_005.wav
<region> lovel=16 hivel=18 amp_velcurve_18=1 sample=../samples/_nsmr/pre_roll/sn12tight/stx/snare_on/sn12tight_p50_stx_xtk_006.wav
<region> lovel=19 hivel=21 amp_velcurve_21=1 sample=../samples/_nsmr/pre_roll/sn12tight/stx/snare_on/sn12tight_p50_stx_xtk_007.wav
<region> lovel=22 hivel=24 amp_velcurve_24=1 sample=../samples/_nsmr/pre_roll/sn12tight/stx/snare_on/sn12tight_p50_stx_xtk_008.wav
<region> lovel=25 hivel=27 amp_velcurve_27=1 sample=../samples/_nsmr/pre_roll/sn12tight/stx/snare_on/sn12tight_p50_stx_xtk_009.wav
<region> lovel=28 hivel=30 amp_velcurve_30=1 sample=../samples/_nsmr/pre_roll/sn12tight/stx/snare_on/sn12tight_p50_stx_xtk_010.wav
<region> lovel=31 hivel=33 amp_velcurve_33=1 sample=../samples/_nsmr/pre_roll/sn12tight/stx/snare_on/sn12tight_p50_stx_xtk_011.wav
<region> lovel=34 hivel=36 amp_velcurve_36=1 sample=../samples/_nsmr/pre_roll/sn12tight/stx/snare_on/sn12tight_p50_stx_xtk_012.wav
<region> lovel=37 hivel=39 amp_velcurve_39=1 sample=../samples/_nsmr/pre_roll/sn12tight/stx/snare_on/sn12tight_p50_stx_xtk_013.wav
<region> lovel=40 hivel=42 amp_velcurve_42=1 sample=../samples/_nsmr/pre_roll/sn12tight/stx/snare_on/sn12tight_p50_stx_xtk_014.wav
<region> lovel=43 hivel=45 amp_velcurve_45=1 sample=../samples/_nsmr/pre_roll/sn12tight/stx/snare_on/sn12tight_p50_stx_xtk_015.wav
<region> lovel=46 hivel=48 amp_velcurve_48=1 sample=../samples/_nsmr/pre_roll/sn12tight/stx/snare_on/sn12tight_p50_stx_xtk_016.wav
<region> lovel=49 hivel=51 amp_velcurve_51=1 sample=../samples/_nsmr/pre_roll/sn12tight/stx/snare_on/sn12tight_p50_stx_xtk_017.wav
<region> lovel=52 hivel=54 amp_velcurve_54=1 sample=../samples/_nsmr/pre_roll/sn12tight/stx/snare_on/sn12tight_p50_stx_xtk_018.wav
<region> lovel=55 hivel=57 amp_velcurve_57=1 sample=../samples/_nsmr/pre_roll/sn12tight/stx/snare_on/sn12tight_p50_stx_xtk_019.wav
<region> lovel=58 hivel=60 amp_velcurve_60=1 sample=../samples/_nsmr/pre_roll/sn12tight/stx/snare_on/sn12tight_p50_stx_xtk_020.wav
<region> lovel=61 hivel=63 amp_velcurve_63=1 sample=../samples/_nsmr/pre_roll/sn12tight/stx/snare_on/sn12tight_p50_stx_xtk_021.wav
<region> lovel=64 hivel=66 amp_velcurve_66=1 sample=../samples/_nsmr/pre_roll/sn12tight/stx/snare_on/sn12tight_p50_stx_xtk_022.wav
<region> lovel=67 hivel=69 amp_velcurve_69=1 sample=../samples/_nsmr/pre_roll/sn12tight/stx/snare_on/sn12tight_p50_stx_xtk_023.wav
<region> lovel=70 hivel=72 amp_velcurve_72=1 sample=../samples/_nsmr/pre_roll/sn12tight/stx/snare_on/sn12tight_p50_stx_xtk_024.wav
<region> lovel=73 hivel=75 amp_velcurve_75=1 sample=../samples/_nsmr/pre_roll/sn12tight/stx/snare_on/sn12tight_p50_stx_xtk_025.wav
<region> lovel=76 hivel=78 amp_velcurve_78=1 sample=../samples/_nsmr/pre_roll/sn12tight/stx/snare_on/sn12tight_p50_stx_xtk_026.wav
<region> lovel=79 hivel=81 amp_velcurve_81=1 sample=../samples/_nsmr/pre_roll/sn12tight/stx/snare_on/sn12tight_p50_stx_xtk_027.wav
<region> lovel=82 hivel=84 amp_velcurve_84=1 sample=../samples/_nsmr/pre_roll/sn12tight/stx/snare_on/sn12tight_p50_stx_xtk_028.wav
<region> lovel=85 hivel=87 amp_velcurve_87=1 sample=../samples/_nsmr/pre_roll/sn12tight/stx/snare_on/sn12tight_p50_stx_xtk_029.wav
<region> lovel=88 hivel=90 amp_velcurve_90=1 sample=../samples/_nsmr/pre_roll/sn12tight/stx/snare_on/sn12tight_p50_stx_xtk_030.wav
<region> lovel=91 hivel=93 amp_velcurve_93=1 sample=../samples/_nsmr/pre_roll/sn12tight/stx/snare_on/sn12tight_p50_stx_xtk_031.wav
<region> lovel=94 hivel=96 amp_velcurve_96=1 sample=../samples/_nsmr/pre_roll/sn12tight/stx/snare_on/sn12tight_p50_stx_xtk_032.wav
<region> lovel=97 hivel=99 amp_velcurve_99=1 sample=../samples/_nsmr/pre_roll/sn12tight/stx/snare_on/sn12tight_p50_stx_xtk_033.wav
<region> lovel=100 hivel=102 amp_velcurve_102=1 sample=../samples/_nsmr/pre_roll/sn12tight/stx/snare_on/sn12tight_p50_stx_xtk_034.wav
<region> lovel=103 hivel=105 amp_velcurve_105=1 sample=../samples/_nsmr/pre_roll/sn12tight/stx/snare_on/sn12tight_p50_stx_xtk_035.wav
<region> lovel=106 hivel=108 amp_velcurve_108=1 sample=../samples/_nsmr/pre_roll/sn12tight/stx/snare_on/sn12tight_p50_stx_xtk_036.wav
<region> lovel=109 hivel=111 amp_velcurve_111=1 sample=../samples/_nsmr/pre_roll/sn12tight/stx/snare_on/sn12tight_p50_stx_xtk_037.wav
<region> lovel=112 hivel=115 amp_velcurve_115=1 sample=../samples/_nsmr/pre_roll/sn12tight/stx/snare_on/sn12tight_p50_stx_xtk_038.wav
<region> lovel=116 hivel=119 amp_velcurve_119=1 sample=../samples/_nsmr/pre_roll/sn12tight/stx/snare_on/sn12tight_p50_stx_xtk_039.wav
<region> lovel=120 hivel=123 amp_velcurve_123=1 sample=../samples/_nsmr/pre_roll/sn12tight/stx/snare_on/sn12tight_p50_stx_xtk_040.wav
<region> lovel=124 hivel=127 amp_velcurve_127=1 sample=../samples/_nsmr/pre_roll/sn12tight/stx/snare_on/sn12tight_p50_stx_xtk_041.wav
